<?xml version="1.0" standalone="no"?>
<!DOCTYPE svg PUBLIC "-//W3C//DTD SVG 20010904//EN"
 "http://www.w3.org/TR/2001/REC-SVG-20010904/DTD/svg10.dtd">
<svg version="1.0" xmlns="http://www.w3.org/2000/svg"
 width="406.000000pt" height="309.000000pt" viewBox="0 0 406.000000 309.000000"
 preserveAspectRatio="xMidYMid meet">

<g transform="translate(0.000000,309.000000) scale(0.100000,-0.100000)"
fill="#000000" stroke="none">
<path d="M2084 2472 c-97 -72 -104 -101 -104 -446 0 -320 7 -358 78 -437 48
-54 95 -79 148 -79 l34 0 0 -109 c0 -131 4 -137 87 -127 61 7 103 34 208 132
108 100 79 92 355 96 235 3 247 4 286 26 22 13 53 42 67 65 l27 41 0 368 c0
348 -1 371 -20 408 -11 21 -34 49 -52 62 l-33 23 -521 3 -520 3 -40 -29z
m1073 -76 l28 -24 3 -356 3 -355 -30 -33 -29 -33 -259 -5 -259 -5 -114 -99
c-143 -122 -170 -142 -171 -124 0 7 -2 60 -2 118 l-2 105 -74 7 c-60 5 -79 11
-110 35 -72 58 -72 60 -69 411 l3 314 37 34 38 34 489 0 490 0 28 -24z"/>
<path d="M2280 2125 l0 -45 363 2 362 3 0 40 0 40 -362 3 -363 2 0 -45z"/>
<path d="M2282 1858 l3 -43 298 0 297 0 0 42 0 43 -301 0 -300 0 3 -42z"/>
<path d="M1489 2069 c-8 -5 -24 -9 -37 -9 -54 0 -172 -92 -208 -162 -50 -96
-60 -264 -22 -365 26 -71 101 -153 171 -188 71 -35 198 -36 272 -1 87 40 158
128 190 232 31 103 11 258 -45 339 -62 90 -111 124 -215 150 -62 15 -87 16
-106 4z m231 -562 c0 -2 -10 -12 -22 -23 l-23 -19 19 23 c18 21 26 27 26 19z"/>
<path d="M1335 1194 c-38 -8 -79 -18 -90 -23 -11 -4 -45 -19 -75 -32 -72 -32
-159 -104 -202 -171 -54 -82 -68 -150 -68 -325 0 -138 2 -152 21 -174 l21 -24
604 0 605 0 19 25 c17 22 20 43 20 188 l0 163 -35 76 c-94 203 -320 315 -629
312 -67 -1 -152 -8 -191 -15z m68 -101 c-7 -2 -19 -2 -25 0 -7 3 -2 5 12 5 14
0 19 -2 13 -5z m274 1 c-3 -3 -12 -4 -19 -1 -8 3 -5 6 6 6 11 1 17 -2 13 -5z
m413 -538 c0 -3 -4 -8 -10 -11 -5 -3 -10 -1 -10 4 0 6 5 11 10 11 6 0 10 -2
10 -4z"/>
</g>
</svg>
