<?xml version="1.0" standalone="no"?>
<!DOCTYPE svg PUBLIC "-//W3C//DTD SVG 20010904//EN"
 "http://www.w3.org/TR/2001/REC-SVG-20010904/DTD/svg10.dtd">
<svg version="1.0" xmlns="http://www.w3.org/2000/svg"
 width="346.000000pt" height="370.000000pt" viewBox="0 0 346.000000 370.000000"
 preserveAspectRatio="xMidYMid meet">

<g transform="translate(0.000000,370.000000) scale(0.100000,-0.100000)"
fill="#000000" stroke="none">
<path d="M1555 3620 c-1166 -5 -1283 -6 -1310 -22 -37 -20 -67 -52 -91 -98
-18 -34 -19 -93 -19 -1661 l0 -1626 30 -48 c22 -36 45 -57 84 -77 l53 -28
1454 0 c1293 0 1459 2 1492 16 47 19 88 58 115 109 l22 40 0 1615 c0 888 -3
1627 -8 1643 -11 38 -75 107 -117 125 -44 19 -87 19 -1705 12z m-1030 -222
c49 -22 69 -88 40 -132 -49 -74 -165 -43 -165 44 0 40 22 77 54 90 29 12 41
12 71 -2z m348 -28 c41 -46 32 -101 -23 -133 -40 -24 -65 -21 -102 12 -46 41
-45 92 1 133 41 37 82 33 124 -12z m2467 -1707 c0 -938 -4 -1400 -11 -1426
-12 -45 -58 -100 -96 -116 -21 -8 -415 -11 -1490 -9 -1458 3 -1462 3 -1490 24
-15 11 -38 40 -50 64 l-23 44 0 1403 0 1403 1580 0 1580 0 0 -1387z"/>
<path d="M1606 2654 c-275 -66 -475 -328 -476 -620 -1 -388 347 -691 726 -634
331 50 554 309 554 642 0 151 -48 281 -147 402 -79 98 -225 184 -363 215 -64
15 -225 12 -294 -5z m524 -324 c11 -11 20 -29 20 -39 0 -23 -451 -527 -480
-536 -29 -9 -45 3 -162 123 -79 81 -108 117 -108 136 0 31 42 66 71 59 11 -3
54 -43 97 -89 42 -46 81 -84 87 -83 5 0 100 101 210 224 211 237 223 247 265
205z"/>
<path d="M1733 1128 c-30 -15 -46 -58 -34 -91 20 -51 77 -62 118 -21 20 20 24
31 19 57 -4 17 -12 37 -19 44 -18 18 -59 23 -84 11z"/>
<path d="M2272 1124 c-15 -10 -22 -25 -22 -49 0 -24 -7 -39 -22 -49 -30 -21
-43 -20 -77 5 -38 28 -57 21 -125 -51 -62 -64 -67 -86 -34 -130 18 -24 20 -35
12 -58 -8 -23 -16 -27 -52 -30 -59 -4 -72 -27 -72 -127 0 -98 10 -116 71 -124
36 -5 45 -11 53 -33 8 -23 6 -32 -12 -51 -12 -13 -22 -32 -22 -43 0 -26 120
-144 146 -144 12 0 29 9 39 20 20 22 46 25 76 10 14 -8 19 -21 19 -49 0 -58
21 -71 114 -71 96 0 116 9 116 55 0 64 66 99 105 55 30 -33 56 -24 123 43 67
68 74 89 41 131 -11 14 -19 36 -17 48 2 19 11 24 50 30 26 3 51 9 56 12 14 8
24 171 12 200 -8 22 -16 26 -49 26 -30 0 -44 6 -55 22 -22 31 -20 45 9 80 14
16 25 36 25 45 0 8 -30 46 -67 84 -71 74 -97 84 -128 49 -35 -38 -95 -19 -95
31 0 18 -9 39 -25 54 -21 22 -33 25 -97 25 -50 0 -81 -5 -96 -16z m158 -83 c0
-46 23 -69 89 -91 39 -12 44 -12 71 8 36 27 41 27 64 0 10 -13 28 -33 38 -45
20 -22 20 -22 -7 -57 -24 -32 -26 -38 -15 -70 20 -61 46 -86 91 -86 l40 0 -3
-62 -3 -63 -42 -3 c-35 -3 -45 -9 -62 -35 -34 -56 -35 -80 -5 -116 l27 -33
-42 -41 c-35 -36 -44 -40 -59 -29 -52 37 -61 38 -121 7 -53 -29 -56 -32 -59
-72 l-3 -43 -60 0 -59 0 0 35 c0 43 -22 66 -84 90 -46 18 -47 18 -76 -3 -38
-29 -43 -28 -79 13 l-31 35 21 39 c17 33 18 43 7 67 -28 66 -47 84 -89 84
l-39 0 0 65 0 65 38 0 c45 0 63 16 87 78 17 42 17 43 -8 81 l-26 38 44 43 43
43 28 -22 c32 -25 45 -26 87 -5 54 28 77 54 77 91 l0 33 60 0 60 0 0 -39z"/>
<path d="M2295 848 c-189 -66 -182 -347 10 -403 133 -40 275 66 275 205 0 143
-149 246 -285 198z m145 -70 c101 -69 105 -191 9 -255 -33 -22 -47 -25 -95
-21 -47 4 -61 10 -90 40 -56 55 -62 128 -19 195 41 62 134 82 195 41z"/>
<path d="M647 848 c-37 -33 -40 -75 -7 -108 45 -45 120 -11 120 53 0 62 -68
95 -113 55z"/>
<path d="M945 847 c-53 -45 -27 -127 40 -127 61 0 97 72 58 118 -29 34 -66 37
-98 9z"/>
<path d="M1254 858 c-22 -10 -44 -47 -44 -72 0 -7 9 -25 21 -40 51 -65 153 0
123 79 -6 15 -55 46 -71 44 -4 0 -18 -5 -29 -11z"/>
<path d="M1560 863 c-32 -12 -50 -37 -50 -70 0 -42 30 -73 70 -73 69 0 97 80
44 128 -25 22 -37 25 -64 15z"/>
</g>
</svg>
