<?xml version="1.0" standalone="no"?>
<!DOCTYPE svg PUBLIC "-//W3C//DTD SVG 20010904//EN"
 "http://www.w3.org/TR/2001/REC-SVG-20010904/DTD/svg10.dtd">
<svg version="1.0" xmlns="http://www.w3.org/2000/svg"
 width="401.000000pt" height="276.000000pt" viewBox="0 0 401.000000 276.000000"
 preserveAspectRatio="xMidYMid meet">

<g transform="translate(0.000000,276.000000) scale(0.100000,-0.100000)"
fill="#000000" stroke="none">
<path d="M894 2390 c-18 -4 -46 -17 -63 -29 -64 -46 -61 -1 -61 -880 l0 -800
-87 -3 -88 -3 -3 -70 c-7 -145 58 -247 188 -292 51 -18 2379 -19 2447 0 55 14
135 82 163 137 14 28 20 63 22 131 l3 94 -85 3 c-52 2 -87 8 -92 15 -4 7 -8
359 -8 783 0 424 -3 785 -6 803 -7 36 -53 87 -92 103 -30 12 -2184 19 -2238 8z
m2102 -241 c12 -10 14 -117 14 -668 0 -498 -3 -660 -12 -669 -15 -15 -1983
-18 -1992 -3 -3 5 -6 307 -6 672 0 553 2 666 13 674 21 15 1964 10 1983 -6z
m-2119 -1445 c-3 -3 -12 -4 -19 -1 -8 3 -5 6 6 6 11 1 17 -2 13 -5z m958 -84
c3 -5 1 -10 -4 -10 -6 0 -11 5 -11 10 0 6 2 10 4 10 3 0 8 -4 11 -10z m345 0
c0 -5 -8 -10 -17 -10 -15 0 -16 2 -3 10 19 12 20 12 20 0z m-467 -16 c10 -3
17 -15 17 -28 0 -13 8 -30 18 -40 17 -14 46 -16 258 -14 l238 3 13 25 c6 14
14 33 17 43 5 17 35 18 524 16 285 0 524 -4 531 -9 10 -6 11 -19 1 -65 -16
-77 -76 -140 -141 -150 -24 -3 -573 -5 -1219 -3 l-1175 3 -36 24 c-45 31 -80
84 -86 132 -10 73 -49 67 514 68 279 0 516 -2 526 -5z"/>
<path d="M2142 1538 l-263 -263 -104 108 c-87 89 -109 107 -134 107 -34 0 -56
-28 -46 -58 3 -10 63 -75 133 -145 94 -92 135 -127 153 -127 18 0 93 69 312
288 158 158 287 293 287 300 0 18 -37 52 -58 52 -9 0 -135 -118 -280 -262z"/>
</g>
</svg>
