<?xml version="1.0" standalone="no"?>
<!DOCTYPE svg PUBLIC "-//W3C//DTD SVG 20010904//EN"
 "http://www.w3.org/TR/2001/REC-SVG-20010904/DTD/svg10.dtd">
<svg version="1.0" xmlns="http://www.w3.org/2000/svg"
 width="332.000000pt" height="260.000000pt" viewBox="0 0 332.000000 260.000000"
 preserveAspectRatio="xMidYMid meet">

<g transform="translate(0.000000,260.000000) scale(0.100000,-0.100000)"
fill="#000000" stroke="none">
<path d="M1333 2304 c-58 -29 -63 -52 -63 -299 l0 -221 36 -35 35 -34 135 -3
134 -4 -2 -204 -3 -204 -438 -3 c-376 -2 -439 -4 -447 -17 -5 -8 -10 -99 -10
-202 l0 -188 -75 0 c-75 0 -108 -9 -157 -42 -53 -36 -58 -63 -58 -282 0 -302
-7 -296 342 -296 336 0 329 -6 330 300 0 188 -1 201 -22 235 -36 58 -100 85
-207 85 l-73 0 0 160 0 160 73 0 c39 1 223 2 407 3 l335 2 3 -162 2 -163 -77
0 c-42 0 -93 -5 -112 -12 -46 -16 -97 -69 -105 -109 -3 -17 -6 -111 -6 -208 0
-198 7 -226 70 -268 32 -22 40 -23 275 -23 236 0 243 1 276 23 61 41 68 69 69
280 0 198 -2 210 -49 260 -39 42 -83 57 -172 57 l-79 0 0 163 0 162 395 -2
c218 0 401 -3 408 -6 9 -3 11 -44 9 -161 l-3 -156 -67 0 c-113 0 -182 -35
-213 -106 -16 -40 -19 -69 -19 -222 1 -199 8 -228 69 -269 33 -22 40 -23 283
-23 351 0 341 -7 347 242 4 232 -1 268 -47 316 -47 48 -89 62 -185 62 l-77 0
0 185 c0 172 -1 186 -20 205 -19 19 -33 20 -450 20 l-430 0 0 204 0 204 141 4
c140 3 141 3 165 31 24 28 24 29 24 265 0 264 -2 271 -66 298 -52 22 -586 20
-631 -2z m607 -94 c0 -5 -2 -10 -4 -10 -3 0 -8 5 -11 10 -3 6 -1 10 4 10 6 0
11 -4 11 -10z m-533 -1482 c-3 -7 -5 -2 -5 12 0 14 2 19 5 13 2 -7 2 -19 0
-25z m0 -301 c-2 -23 -3 -1 -3 48 0 50 1 68 3 42 2 -26 2 -67 0 -90z m1398
-57 c-3 -5 -12 -10 -18 -10 -7 0 -6 4 3 10 19 12 23 12 15 0z"/>
</g>
</svg>
