<?xml version="1.0" standalone="no"?>
<!DOCTYPE svg PUBLIC "-//W3C//DTD SVG 20010904//EN"
 "http://www.w3.org/TR/2001/REC-SVG-20010904/DTD/svg10.dtd">
<svg version="1.0" xmlns="http://www.w3.org/2000/svg"
 width="211.000000pt" height="77.000000pt" viewBox="0 0 211.000000 77.000000"
 preserveAspectRatio="xMidYMid meet">

<g transform="translate(0.000000,77.000000) scale(0.100000,-0.100000)"
fill="#000000" stroke="none">
<path d="M305 658 c-40 -14 -84 -56 -101 -95 -17 -39 -19 -268 -3 -310 15 -40
57 -82 104 -104 34 -16 66 -19 223 -19 l182 0 0 55 0 55 -189 0 c-252 0 -243
-9 -233 236 1 35 8 57 22 72 19 20 30 22 150 22 159 0 158 1 161 -137 2 -105
8 -116 65 -111 l37 3 -2 114 c-3 148 -22 186 -108 217 -46 16 -263 18 -308 2z"/>
<path d="M1720 415 l0 -175 24 0 c13 0 26 6 29 13 3 9 7 9 18 1 24 -19 72 -23
106 -9 26 11 35 23 47 66 19 63 7 119 -32 150 -30 23 -94 25 -112 4 -19 -23
-24 -11 -21 60 l2 65 -30 0 -31 0 0 -175z m160 -4 c5 -11 10 -38 10 -60 0 -41
-25 -71 -61 -71 -41 0 -66 64 -45 114 13 32 19 36 50 36 25 0 38 -6 46 -19z"/>
<path d="M975 573 c-37 -9 -83 -52 -95 -89 -7 -22 -10 -63 -7 -100 7 -99 43
-139 133 -150 32 -4 58 -15 76 -32 25 -23 31 -24 54 -13 l27 12 -22 23 c-26
28 -26 31 1 68 44 62 41 186 -5 236 -39 43 -100 60 -162 45z m106 -72 c26 -27
29 -36 29 -95 0 -84 -25 -119 -87 -119 -51 0 -62 7 -79 49 -18 43 -18 95 0
138 26 63 88 75 137 27z"/>
<path d="M1230 410 l0 -170 100 0 100 0 0 25 c0 24 -2 25 -70 25 l-70 0 0 145
0 145 -30 0 -30 0 0 -170z"/>
<path d="M1515 471 c-11 -5 -28 -18 -38 -29 -18 -20 -18 -21 3 -32 17 -9 25
-8 39 4 25 23 68 20 81 -4 16 -30 7 -37 -56 -42 -88 -7 -121 -62 -69 -113 28
-29 79 -33 113 -9 12 8 22 10 22 5 0 -6 11 -11 25 -11 25 0 25 0 25 94 0 114
-12 136 -80 142 -25 2 -54 0 -65 -5z m88 -138 c9 -16 -13 -53 -37 -65 -20 -8
-29 -8 -41 2 -20 17 -19 47 3 59 20 12 69 14 75 4z"/>
</g>
</svg>
